<svg width="183" height="27" viewBox="0 0 183 27" fill="none" xmlns="http://www.w3.org/2000/svg">
<path d="M18.2681 5.44853L12.7933 -0.000183105L10.1306 2.64393L16.9327 9.41669C17.2878 9.76978 17.7638 9.96638 18.2641 9.96638C18.7644 9.96638 19.2404 9.76978 19.5955 9.41669L26.4016 2.64794L23.7429 0.0038292L18.2641 5.45254L18.2681 5.44853Z" fill="#FF7557"/>
<path d="M19.5995 17.5817C18.8652 16.8515 17.6751 16.8515 16.9408 17.5817L10.1387 24.3465L12.7974 26.9906L18.2681 21.5499L23.747 26.9946L26.4057 24.3465L19.5995 17.5817Z" fill="#FF7557"/>
<path d="M7.35889 5.40036L0.548689 12.1812C0.193655 12.5342 0 13.0077 0 13.5052C0 14.0027 0.19769 14.4762 0.552724 14.8293L7.35889 21.586L10.0176 18.9379L4.54283 13.5052L10.0217 8.04848L7.35889 5.40437V5.40036Z" fill="#FF7557"/>
<path d="M35.9795 14.8253C36.3345 14.4722 36.5322 13.9987 36.5322 13.5012C36.5322 13.0037 36.3345 12.5262 35.9835 12.1772L29.2096 5.42847L26.5469 8.07258L31.9934 13.4972L26.5186 18.9299L29.1774 21.578L35.9835 14.8213L35.9795 14.8253Z" fill="#FF7557"/>
<path d="M55.1554 19.2187C55.1554 20.2098 55.2805 21.1727 55.5266 22.1076H52.8356C52.6056 21.4536 52.4886 20.5267 52.4886 19.3271V17.9508C52.4886 16.7311 52.1739 15.8484 51.5445 15.3027C50.9151 14.757 49.9953 14.4802 48.789 14.4802H44.3147V22.1116H41.5713V4.48956H50.0437C51.8713 4.48956 53.2753 4.91487 54.2517 5.76146C55.228 6.60806 55.7162 7.77564 55.7162 9.26019C55.7162 10.4278 55.3975 11.3988 54.756 12.1731C54.1185 12.9515 53.2834 13.4731 52.2506 13.7379C53.243 14.0549 53.9773 14.4842 54.4494 15.0219C54.9214 15.5595 55.1554 16.4061 55.1554 17.5536V19.2227V19.2187ZM52.1578 11.6957C52.6096 11.1821 52.8356 10.4318 52.8356 9.44476C52.8356 7.60712 51.8068 6.68831 49.7451 6.68831H44.3107V12.462H49.85C50.9313 12.462 51.7019 12.2052 52.1537 11.6916L52.1578 11.6957Z" fill="#E2E2F8"/>
<path d="M68.1706 18.1073H70.6195C70.4582 19.2749 69.8772 20.3021 68.8766 21.1928C67.8721 22.0835 66.3228 22.5289 64.2289 22.5289C61.9736 22.5289 60.2872 21.8749 59.1656 20.5669C58.0441 19.2589 57.4873 17.5576 57.4873 15.4552C57.4873 14.1311 57.7374 12.9395 58.2337 11.8802C58.7299 10.821 59.4844 9.98242 60.497 9.36453C61.5097 8.74663 62.7523 8.43768 64.2249 8.43768C65.5926 8.43768 66.7585 8.73459 67.7268 9.3244C68.6951 9.91822 69.4213 10.7247 69.9095 11.7478C70.3976 12.771 70.6437 13.9305 70.6437 15.2185C70.6437 15.6598 70.6276 15.9969 70.5913 16.2256H60.0936C60.1985 17.7984 60.6181 18.9138 61.3443 19.5758C62.0705 20.2379 63.0589 20.5709 64.3015 20.5709C66.4317 20.5709 67.7187 19.7484 68.1625 18.1073H68.1706ZM61.4007 11.2864C60.7068 11.8802 60.2832 12.8793 60.1218 14.2916H68.0859C67.9608 11.6957 66.6819 10.3957 64.2491 10.3957C63.0428 10.3957 62.0906 10.6926 61.4007 11.2824V11.2864Z" fill="#E2E2F8"/>
<path d="M75.4529 3.56274V22.1076H72.7901V3.56274H75.4529Z" fill="#E2E2F8"/>
<path d="M78.9346 21.4175C78.1438 20.7274 77.7485 19.7765 77.7485 18.5567C77.7485 17.4614 78.0632 16.5827 78.6925 15.9206C79.3219 15.2586 80.3588 14.8052 81.7951 14.5565L85.1235 13.9987C85.7811 13.8944 86.2572 13.7259 86.5477 13.4972C86.8422 13.2685 86.9874 12.9234 86.9874 12.462C86.9874 11.808 86.7696 11.3105 86.3338 10.9654C85.8981 10.6204 85.1396 10.4479 84.0544 10.4479C82.9691 10.4479 82.1582 10.6605 81.6175 11.0818C81.0769 11.5071 80.7703 12.141 80.6977 12.9876H78.0349C78.0511 11.5553 78.5755 10.4358 79.6084 9.62132C80.6372 8.81084 82.0855 8.40158 83.9495 8.40158C85.8134 8.40158 87.1044 8.77071 88.0404 9.51299C88.9724 10.2553 89.4404 11.2543 89.4404 12.5062V19.0783C89.4404 20.0493 89.4848 21.0564 89.5735 22.0996H87.1488C87.0439 21.0564 86.9874 20.0613 86.9874 19.1064C86.6848 20.0613 86.1362 20.8558 85.3373 21.4897C84.5385 22.1237 83.4815 22.4446 82.1662 22.4446C80.851 22.4446 79.7213 22.0996 78.9306 21.4095L78.9346 21.4175ZM85.8739 19.0743C86.6203 18.1836 86.9915 17.0481 86.9915 15.6719V14.8774C86.6727 15.1061 86.3258 15.2867 85.9506 15.4191C85.5754 15.5515 85.1316 15.6799 84.6192 15.8043L82.7795 16.2296C81.9443 16.4222 81.3392 16.695 80.968 17.0361C80.5968 17.3811 80.4072 17.8546 80.4072 18.4524C80.4072 19.0502 80.617 19.5518 81.0325 19.8968C81.4481 20.2419 82.0129 20.4144 82.723 20.4144C84.0705 20.4144 85.1195 19.9691 85.8658 19.0783L85.8739 19.0743Z" fill="#E2E2F8"/>
<path d="M94.7215 21.6983C94.1446 21.4255 93.7411 21.0082 93.5112 20.4545C93.2812 19.8968 93.1642 19.1505 93.1642 18.2157V10.9052H90.6346V9.52902L93.4063 8.57409L94.4996 5.87381H95.831V8.86699H100.095V10.9052H95.831V19.9931H99.8292V22.1116H97.1906C96.1255 22.1116 95.3025 21.9752 94.7255 21.7023L94.7215 21.6983Z" fill="#E2E2F8"/>
<path d="M104.626 4.48956V6.87287H101.27V4.48956H104.626ZM104.279 8.86298V22.1076H101.616V8.86298H104.279Z" fill="#E2E2F8"/>
<path d="M109.443 21.6061C108.415 20.9882 107.64 20.1456 107.124 19.0743C106.607 18.007 106.349 16.7993 106.349 15.4592C106.349 14.1191 106.607 12.9435 107.124 11.8842C107.64 10.825 108.411 9.98642 109.443 9.36852C110.472 8.75063 111.735 8.44168 113.228 8.44168C114.72 8.44168 115.979 8.75063 117.012 9.36852C118.041 9.98642 118.815 10.829 119.332 11.9003C119.848 12.9676 120.106 14.1552 120.106 15.4632C120.106 16.7712 119.848 17.9829 119.332 19.0542C118.815 20.1215 118.045 20.9721 117.012 21.598C115.983 22.2239 114.72 22.5369 113.228 22.5369C111.735 22.5369 110.476 22.228 109.443 21.6101V21.6061ZM110.044 19.2589C110.71 20.0252 111.771 20.4104 113.228 20.4104C114.684 20.4104 115.745 20.0252 116.411 19.2589C117.077 18.4885 117.411 17.2326 117.411 15.4833C117.411 13.7339 117.077 12.4781 116.411 11.7077C115.745 10.9373 114.684 10.5562 113.228 10.5562C111.771 10.5562 110.71 10.9413 110.044 11.7077C109.379 12.474 109.044 13.7339 109.044 15.4833C109.044 17.2326 109.379 18.4925 110.044 19.2589Z" fill="#E2E2F8"/>
<path d="M133.392 9.78981C134.146 10.6926 134.526 12.0407 134.526 13.8422V22.1076H131.863V14.079C131.863 12.791 131.605 11.8923 131.092 11.3907C130.576 10.8892 129.85 10.6364 128.906 10.6364C127.554 10.6364 126.546 11.1059 125.868 12.0407C125.194 12.9756 124.855 14.4682 124.855 16.5184V22.1076H122.192V8.86297H124.855V11.8321C125.779 9.57315 127.385 8.44168 129.676 8.44168C131.399 8.44168 132.638 8.89106 133.392 9.79383V9.78981Z" fill="#E2E2F8"/>
<path d="M137.79 21.4175C136.999 20.7274 136.603 19.7765 136.603 18.5567C136.603 17.4614 136.918 16.5827 137.548 15.9206C138.177 15.2586 139.214 14.8052 140.65 14.5565L143.978 13.9987C144.636 13.8944 145.112 13.7259 145.403 13.4972C145.697 13.2685 145.842 12.9234 145.842 12.462C145.842 11.808 145.625 11.3105 145.189 10.9654C144.753 10.6204 143.995 10.4479 142.909 10.4479C141.824 10.4479 141.013 10.6605 140.473 11.0818C139.932 11.5071 139.625 12.141 139.553 12.9876H136.89C136.906 11.5553 137.431 10.4358 138.463 9.62132C139.492 8.81084 140.941 8.40158 142.804 8.40158C144.668 8.40158 145.963 8.77071 146.895 9.51299C147.827 10.2553 148.295 11.2543 148.295 12.5062V19.0783C148.295 20.0493 148.34 21.0564 148.429 22.0996H146.004C145.899 21.0564 145.842 20.0613 145.842 19.1064C145.54 20.0613 144.991 20.8558 144.192 21.4897C143.393 22.1237 142.336 22.4446 141.021 22.4446C139.706 22.4446 138.576 22.0996 137.786 21.4095L137.79 21.4175ZM144.729 19.0743C145.475 18.1836 145.846 17.0481 145.846 15.6719V14.8774C145.528 15.1061 145.181 15.2867 144.806 15.4191C144.434 15.5515 143.987 15.6799 143.474 15.8043L141.634 16.2296C140.799 16.4222 140.194 16.695 139.823 17.0361C139.452 17.3811 139.262 17.8546 139.262 18.4524C139.262 19.0502 139.472 19.5518 139.888 19.8968C140.303 20.2419 140.868 20.4144 141.578 20.4144C142.925 20.4144 143.974 19.9691 144.721 19.0783L144.729 19.0743Z" fill="#E2E2F8"/>
<path d="M153.581 3.56274V22.1076H150.918V3.56274H153.581Z" fill="#E2E2F8"/>
<path d="M168.093 17.2848H159.088L157.224 22.1076H155.517L162.392 4.48956H164.817L171.691 22.1076H169.961L168.097 17.2848H168.093ZM167.56 15.9086L163.59 5.73338L159.62 15.9086H167.56Z" fill="#E2E2F8"/>
<path d="M179.111 5.86981V20.7314H183V22.1076H173.543V20.7314H177.432V5.86981H173.543V4.49359H183V5.86981H179.111Z" fill="#E2E2F8"/>
</svg>
